Output #0, mpeg, to '03.mpg':
    Stream #0:0: Video: mpeg1video, yuv420p, 640x480, q=2-31, 400 kb/s, 25 tbn
[mpeg @ 0x555558dbe6f0] VBV buffer size not set, using default size of 230KB
If you want the mpeg file to be compliant to some specification
Like DVD, VCD or others, make sure you set the correct buffer size
pts:0 pts_time:0 dts:-3600 dts_time:-0.04 duration:0 duration_time:0 stream_index:0
[mpeg @ 0x555558dbe6f0] buffer underflow st=0 bufi=10406 size=29736
[mpeg @ 0x555558dbe6f0] buffer underflow st=0 bufi=12447 size=29736
[mpeg @ 0x555558dbe6f0] buffer underflow st=0 bufi=14488 size=29736
[mpeg @ 0x555558dbe6f0] buffer underflow st=0 bufi=16529 size=29736
[mpeg @ 0x555558dbe6f0] buffer underflow st=0 bufi=18570 size=29736
[mpeg @ 0x555558dbe6f0] buffer underflow st=0 bufi=20611 size=29736
[mpeg @ 0x555558dbe6f0] buffer underflow st=0 bufi=22652 size=29736
[mpeg @ 0x555558dbe6f0] buffer underflow st=0 bufi=24693 size=29736
[mpeg @ 0x555558dbe6f0] buffer underflow st=0 bufi=26734 size=29736
[mpeg @ 0x555558dbe6f0] buffer underflow st=0 bufi=28775 size=29736
pts:3600 pts_time:0.04 dts:0 dts_time:0 duration:0 duration_time:0 stream_index:0
[mpeg @ 0x555558dbe6f0] buffer underflow st=0 bufi=1071 size=10802
[mpeg @ 0x555558dbe6f0] buffer underflow st=0 bufi=3112 size=10802
[mpeg @ 0x555558dbe6f0] buffer underflow st=0 bufi=5153 size=10802
[mpeg @ 0x555558dbe6f0] buffer underflow st=0 bufi=7194 size=10802
[mpeg @ 0x555558dbe6f0] buffer underflow st=0 bufi=9235 size=10802
pts:7200 pts_time:0.08 dts:3600 dts_time:0.04 duration:0 duration_time:0 stream_index:0
[mpeg @ 0x555558dbe6f0] buffer underflow st=0 bufi=465 size=33765
[mpeg @ 0x555558dbe6f0] buffer underflow st=0 bufi=2506 size=33765
[mpeg @ 0x555558dbe6f0] buffer underflow st=0 bufi=4547 size=33765
[mpeg @ 0x555558dbe6f0] buffer underflow st=0 bufi=6588 size=33765
[mpeg @ 0x555558dbe6f0] buffer underflow st=0 bufi=8629 size=33765
[mpeg @ 0x555558dbe6f0] buffer underflow st=0 bufi=10670 size=33765
[mpeg @ 0x555558dbe6f0] buffer underflow st=0 bufi=12711 size=33765
[mpeg @ 0x555558dbe6f0] buffer underflow st=0 bufi=14752 size=33765
[mpeg @ 0x555558dbe6f0] buffer underflow st=0 bufi=16793 size=33765
[mpeg @ 0x555558dbe6f0] buffer underflow st=0 bufi=18834 size=33765
[mpeg @ 0x555558dbe6f0] buffer underflow st=0 bufi=20875 size=33765
[mpeg @ 0x555558dbe6f0] buffer underflow st=0 bufi=22916 size=33765
[mpeg @ 0x555558dbe6f0] buffer underflow st=0 bufi=24957 size=33765
[mpeg @ 0x555558dbe6f0] buffer underflow st=0 bufi=26998 size=33765
[mpeg @ 0x555558dbe6f0] buffer underflow st=0 bufi=29039 size=33765
[mpeg @ 0x555558dbe6f0] buffer underflow st=0 bufi=31080 size=33765
[mpeg @ 0x555558dbe6f0] buffer underflow st=0 bufi=33121 size=33765
pts:10800 pts_time:0.12 dts:7200 dts_time:0.08 duration:0 duration_time:0 stream_index:0
pts:14400 pts_time:0.16 dts:10800 dts_time:0.12 duration:0 duration_time:0 stream_index:0
pts:18000 pts_time:0.2 dts:14400 dts_time:0.16 duration:0 duration_time:0 stream_index:0
pts:21600 pts_time:0.24 dts:18000 dts_time:0.2 duration:0 duration_time:0 stream_index:0
pts:25200 pts_time:0.28 dts:21600 dts_time:0.24 duration:0 duration_time:0 stream_index:0
[mpeg @ 0x555558dbe6f0] buffer underflow st=0 bufi=133 size=204
pts:28800 pts_time:0.32 dts:25200 dts_time:0.28 duration:0 duration_time:0 stream_index:0
[mpeg @ 0x555558dbe6f0] buffer underflow st=0 bufi=1961 size=2819
pts:32400 pts_time:0.36 dts:28800 dts_time:0.32 duration:0 duration_time:0 stream_index:0
pts:36000 pts_time:0.4 dts:32400 dts_time:0.36 duration:0 duration_time:0 stream_index:0
pts:39600 pts_time:0.44 dts:36000 dts_time:0.4 duration:0 duration_time:0 stream_index:0
[mpeg @ 0x555558dbe6f0] buffer underflow st=0 bufi=851 size=17433
[mpeg @ 0x555558dbe6f0] buffer underflow st=0 bufi=2892 size=17433
[mpeg @ 0x555558dbe6f0] buffer underflow st=0 bufi=4933 size=17433
[mpeg @ 0x555558dbe6f0] buffer underflow st=0 bufi=6974 size=17433
[mpeg @ 0x555558dbe6f0] buffer underflow st=0 bufi=9003 size=17433
[mpeg @ 0x555558dbe6f0] buffer underflow st=0 bufi=11044 size=17433
[mpeg @ 0x555558dbe6f0] buffer underflow st=0 bufi=13085 size=17433
[mpeg @ 0x555558dbe6f0] buffer underflow st=0 bufi=15126 size=17433
[mpeg @ 0x555558dbe6f0] buffer underflow st=0 bufi=17167 size=17433
pts:43200 pts_time:0.48 dts:39600 dts_time:0.44 duration:0 duration_time:0 stream_index:0
[mpeg @ 0x555558dbe6f0] buffer underflow st=0 bufi=1766 size=11501
[mpeg @ 0x555558dbe6f0] buffer underflow st=0 bufi=3807 size=11501
[mpeg @ 0x555558dbe6f0] buffer underflow st=0 bufi=5848 size=11501
[mpeg @ 0x555558dbe6f0] buffer underflow st=0 bufi=7889 size=11501
[mpeg @ 0x555558dbe6f0] buffer underflow st=0 bufi=9930 size=11501
pts:46800 pts_time:0.52 dts:43200 dts_time:0.48 duration:0 duration_time:0 stream_index:0
[mpeg @ 0x555558dbe6f0] buffer underflow st=0 bufi=461 size=1105
pts:50400 pts_time:0.56 dts:46800 dts_time:0.52 duration:0 duration_time:0 stream_index:0
[mpeg @ 0x555558dbe6f0] buffer underflow st=0 bufi=1388 size=9420
[mpeg @ 0x555558dbe6f0] buffer underflow st=0 bufi=3429 size=9420
[mpeg @ 0x555558dbe6f0] buffer underflow st=0 bufi=5470 size=9420
[mpeg @ 0x555558dbe6f0] buffer underflow st=0 bufi=7511 size=9420
pts:54000 pts_time:0.6 dts:50400 dts_time:0.56 duration:0 duration_time:0 stream_index:0
[mpeg @ 0x555558dbe6f0] buffer underflow st=0 bufi=123 size=737
pts:57600 pts_time:0.64 dts:54000 dts_time:0.6 duration:0 duration_time:0 stream_index:0
[mpeg @ 0x555558dbe6f0] buffer underflow st=0 bufi=1418 size=5954
[mpeg @ 0x555558dbe6f0] buffer underflow st=0 bufi=3459 size=5954
[mpeg @ 0x555558dbe6f0] buffer underflow st=0 bufi=5500 size=5954
pts:61200 pts_time:0.68 dts:57600 dts_time:0.64 duration:0 duration_time:0 stream_index:0
pts:64800 pts_time:0.72 dts:61200 dts_time:0.68 duration:0 duration_time:0 stream_index:0
[mpeg @ 0x555558dbe6f0] buffer underflow st=0 bufi=1051 size=6511
[mpeg @ 0x555558dbe6f0] buffer underflow st=0 bufi=3092 size=6511
[mpeg @ 0x555558dbe6f0] buffer underflow st=0 bufi=5133 size=6511
pts:68400 pts_time:0.76 dts:64800 dts_time:0.72 duration:0 duration_time:0 stream_index:0
pts:72000 pts_time:0.8 dts:68400 dts_time:0.76 duration:0 duration_time:0 stream_index:0
[mpeg @ 0x555558dbe6f0] buffer underflow st=0 bufi=122 size=4900
[mpeg @ 0x555558dbe6f0] buffer underflow st=0 bufi=2163 size=4900
[mpeg @ 0x555558dbe6f0] buffer underflow st=0 bufi=4204 size=4900
pts:75600 pts_time:0.84 dts:72000 dts_time:0.8 duration:0 duration_time:0 stream_index:0
pts:79200 pts_time:0.88 dts:75600 dts_time:0.84 duration:0 duration_time:0 stream_index:0
[mpeg @ 0x555558dbe6f0] buffer underflow st=0 bufi=769 size=7762
[mpeg @ 0x555558dbe6f0] buffer underflow st=0 bufi=2810 size=7762
[mpeg @ 0x555558dbe6f0] buffer underflow st=0 bufi=4851 size=7762
[mpeg @ 0x555558dbe6f0] buffer underflow st=0 bufi=6892 size=7762
pts:82800 pts_time:0.92 dts:79200 dts_time:0.88 duration:0 duration_time:0 stream_index:0
[mpeg @ 0x555558dbe6f0] buffer underflow st=0 bufi=1162 size=13078
[mpeg @ 0x555558dbe6f0] buffer underflow st=0 bufi=3203 size=13078
[mpeg @ 0x555558dbe6f0] buffer underflow st=0 bufi=5244 size=13078
[mpeg @ 0x555558dbe6f0] buffer underflow st=0 bufi=7285 size=13078
[mpeg @ 0x555558dbe6f0] buffer underflow st=0 bufi=9326 size=13078
[mpeg @ 0x555558dbe6f0] buffer underflow st=0 bufi=11367 size=13078
pts:86400 pts_time:0.96 dts:82800 dts_time:0.92 duration:0 duration_time:0 stream_index:0
[mpeg @ 0x555558dbe6f0] buffer underflow st=0 bufi=321 size=2597
[mpeg @ 0x555558dbe6f0] buffer underflow st=0 bufi=2362 size=2597
pts:90000 pts_time:1 dts:86400 dts_time:0.96 duration:0 duration_time:0 stream_index:0
pts:93600 pts_time:1.04 dts:90000 dts_time:1 duration:0 duration_time:0 stream_index:0
[mpeg @ 0x555558dbe6f0] buffer underflow st=0 bufi=1285 size=5411
[mpeg @ 0x555558dbe6f0] buffer underflow st=0 bufi=3326 size=5411
[mpeg @ 0x555558dbe6f0] buffer underflow st=0 bufi=5367 size=5411
pts:97200 pts_time:1.08 dts:93600 dts_time:1.04 duration:0 duration_time:0 stream_index:0
pts:100800 pts_time:1.12 dts:97200 dts_time:1.08 duration:0 duration_time:0 stream_index:0
[mpeg @ 0x555558dbe6f0] buffer underflow st=0 bufi=1520 size=2608
pts:104400 pts_time:1.16 dts:100800 dts_time:1.12 duration:0 duration_time:0 stream_index:0
pts:108000 pts_time:1.2 dts:104400 dts_time:1.16 duration:0 duration_time:0 stream_index:0
[mpeg @ 0x555558dbe6f0] buffer underflow st=0 bufi=371 size=1549
pts:111600 pts_time:1.24 dts:108000 dts_time:1.2 duration:0 duration_time:0 stream_index:0
pts:115200 pts_time:1.28 dts:111600 dts_time:1.24 duration:0 duration_time:0 stream_index:0
[mpeg @ 0x555558dbe6f0] buffer underflow st=0 bufi=27 size=6352
[mpeg @ 0x555558dbe6f0] buffer underflow st=0 bufi=2068 size=6352
[mpeg @ 0x555558dbe6f0] buffer underflow st=0 bufi=4109 size=6352
[mpeg @ 0x555558dbe6f0] buffer underflow st=0 bufi=6150 size=6352
pts:118800 pts_time:1.32 dts:115200 dts_time:1.28 duration:0 duration_time:0 stream_index:0
pts:122400 pts_time:1.36 dts:118800 dts_time:1.32 duration:0 duration_time:0 stream_index:0
pts:126000 pts_time:1.4 dts:122400 dts_time:1.36 duration:0 duration_time:0 stream_index:0
[mpeg @ 0x555558dbe6f0] buffer underflow st=0 bufi=424 size=14950
[mpeg @ 0x555558dbe6f0] buffer underflow st=0 bufi=2465 size=14950
[mpeg @ 0x555558dbe6f0] buffer underflow st=0 bufi=4506 size=14950
[mpeg @ 0x555558dbe6f0] buffer underflow st=0 bufi=6547 size=14950
[mpeg @ 0x555558dbe6f0] buffer underflow st=0 bufi=8588 size=14950
[mpeg @ 0x555558dbe6f0] buffer underflow st=0 bufi=10629 size=14950
[mpeg @ 0x555558dbe6f0] buffer underflow st=0 bufi=12658 size=14950
[mpeg @ 0x555558dbe6f0] buffer underflow st=0 bufi=14699 size=14950
pts:129600 pts_time:1.44 dts:126000 dts_time:1.4 duration:0 duration_time:0 stream_index:0
pts:133200 pts_time:1.48 dts:129600 dts_time:1.44 duration:0 duration_time:0 stream_index:0
pts:136800 pts_time:1.52 dts:133200 dts_time:1.48 duration:0 duration_time:0 stream_index:0
[mpeg @ 0x555558dbe6f0] buffer underflow st=0 bufi=1003 size=2071
pts:140400 pts_time:1.56 dts:136800 dts_time:1.52 duration:0 duration_time:0 stream_index:0
pts:144000 pts_time:1.6 dts:140400 dts_time:1.56 duration:0 duration_time:0 stream_index:0
[mpeg @ 0x555558dbe6f0] buffer underflow st=0 bufi=564 size=2788
[mpeg @ 0x555558dbe6f0] buffer underflow st=0 bufi=2605 size=2788
pts:147600 pts_time:1.64 dts:144000 dts_time:1.6 duration:0 duration_time:0 stream_index:0
pts:151200 pts_time:1.68 dts:147600 dts_time:1.64 duration:0 duration_time:0 stream_index:0
pts:154800 pts_time:1.72 dts:151200 dts_time:1.68 duration:0 duration_time:0 stream_index:0
pts:158400 pts_time:1.76 dts:154800 dts_time:1.72 duration:0 duration_time:0 stream_index:0
[mpeg @ 0x555558dbe6f0] buffer underflow st=0 bufi=230 size=1376
pts:162000 pts_time:1.8 dts:158400 dts_time:1.76 duration:0 duration_time:0 stream_index:0
[mpeg @ 0x555558dbe6f0] buffer underflow st=0 bufi=886 size=1463
pts:165600 pts_time:1.84 dts:162000 dts_time:1.8 duration:0 duration_time:0 stream_index:0
pts:169200 pts_time:1.88 dts:165600 dts_time:1.84 duration:0 duration_time:0 stream_index:0
[mpeg @ 0x555558dbe6f0] buffer underflow st=0 bufi=772 size=23189
[mpeg @ 0x555558dbe6f0] buffer underflow st=0 bufi=2813 size=23189
[mpeg @ 0x555558dbe6f0] buffer underflow st=0 bufi=4854 size=23189
[mpeg @ 0x555558dbe6f0] buffer underflow st=0 bufi=6895 size=23189
[mpeg @ 0x555558dbe6f0] buffer underflow st=0 bufi=8936 size=23189
[mpeg @ 0x555558dbe6f0] buffer underflow st=0 bufi=10977 size=23189
[mpeg @ 0x555558dbe6f0] buffer underflow st=0 bufi=13018 size=23189
[mpeg @ 0x555558dbe6f0] buffer underflow st=0 bufi=15059 size=23189
[mpeg @ 0x555558dbe6f0] buffer underflow st=0 bufi=17100 size=23189
[mpeg @ 0x555558dbe6f0] buffer underflow st=0 bufi=19141 size=23189
[mpeg @ 0x555558dbe6f0] buffer underflow st=0 bufi=21182 size=23189
pts:172800 pts_time:1.92 dts:169200 dts_time:1.88 duration:0 duration_time:0 stream_index:0
[mpeg @ 0x555558dbe6f0] buffer underflow st=0 bufi=25 size=364
pts:176400 pts_time:1.96 dts:172800 dts_time:1.92 duration:0 duration_time:0 stream_index:0
pts:180000 pts_time:2 dts:176400 dts_time:1.96 duration:0 duration_time:0 stream_index:0
[mpeg @ 0x555558dbe6f0] buffer underflow st=0 bufi=911 size=5260
[mpeg @ 0x555558dbe6f0] buffer underflow st=0 bufi=2952 size=5260
[mpeg @ 0x555558dbe6f0] buffer underflow st=0 bufi=4993 size=5260
pts:183600 pts_time:2.04 dts:180000 dts_time:2 duration:0 duration_time:0 stream_index:0
pts:187200 pts_time:2.08 dts:183600 dts_time:2.04 duration:0 duration_time:0 stream_index:0
pts:190800 pts_time:2.12 dts:187200 dts_time:2.08 duration:0 duration_time:0 stream_index:0
[mpeg @ 0x555558dbe6f0] buffer underflow st=0 bufi=99 size=775
pts:194400 pts_time:2.16 dts:190800 dts_time:2.12 duration:0 duration_time:0 stream_index:0
pts:198000 pts_time:2.2 dts:194400 dts_time:2.16 duration:0 duration_time:0 stream_index:0
[mpeg @ 0x555558dbe6f0] buffer underflow st=0 bufi=625 size=695
pts:201600 pts_time:2.24 dts:198000 dts_time:2.2 duration:0 duration_time:0 stream_index:0
pts:205200 pts_time:2.28 dts:201600 dts_time:2.24 duration:0 duration_time:0 stream_index:0
[mpeg @ 0x555558dbe6f0] buffer underflow st=0 bufi=973 size=2637
pts:208800 pts_time:2.32 dts:205200 dts_time:2.28 duration:0 duration_time:0 stream_index:0
pts:212400 pts_time:2.36 dts:208800 dts_time:2.32 duration:0 duration_time:0 stream_index:0
[mpeg @ 0x555558dbe6f0] buffer underflow st=0 bufi=135 size=27730
[mpeg @ 0x555558dbe6f0] buffer underflow st=0 bufi=2176 size=27730
[mpeg @ 0x555558dbe6f0] buffer underflow st=0 bufi=4217 size=27730
[mpeg @ 0x555558dbe6f0] buffer underflow st=0 bufi=6258 size=27730
[mpeg @ 0x555558dbe6f0] buffer underflow st=0 bufi=8299 size=27730
[mpeg @ 0x555558dbe6f0] buffer underflow st=0 bufi=10340 size=27730
[mpeg @ 0x555558dbe6f0] buffer underflow st=0 bufi=12381 size=27730
[mpeg @ 0x555558dbe6f0] buffer underflow st=0 bufi=14422 size=27730
[mpeg @ 0x555558dbe6f0] buffer underflow st=0 bufi=16463 size=27730
[mpeg @ 0x555558dbe6f0] buffer underflow st=0 bufi=18504 size=27730
[mpeg @ 0x555558dbe6f0] buffer underflow st=0 bufi=20545 size=27730
[mpeg @ 0x555558dbe6f0] buffer underflow st=0 bufi=22586 size=27730
[mpeg @ 0x555558dbe6f0] buffer underflow st=0 bufi=24627 size=27730
[mpeg @ 0x555558dbe6f0] buffer underflow st=0 bufi=26668 size=27730
pts:216000 pts_time:2.4 dts:212400 dts_time:2.36 duration:0 duration_time:0 stream_index:0
[mpeg @ 0x555558dbe6f0] buffer underflow st=0 bufi=970 size=4121
[mpeg @ 0x555558dbe6f0] buffer underflow st=0 bufi=3011 size=4121
pts:219600 pts_time:2.44 dts:216000 dts_time:2.4 duration:0 duration_time:0 stream_index:0
pts:223200 pts_time:2.48 dts:219600 dts_time:2.44 duration:0 duration_time:0 stream_index:0
[mpeg @ 0x555558dbe6f0] buffer underflow st=0 bufi=454 size=3192
[mpeg @ 0x555558dbe6f0] buffer underflow st=0 bufi=2495 size=3192
pts:226800 pts_time:2.52 dts:223200 dts_time:2.48 duration:0 duration_time:0 stream_index:0
pts:230400 pts_time:2.56 dts:226800 dts_time:2.52 duration:0 duration_time:0 stream_index:0
[mpeg @ 0x555558dbe6f0] buffer underflow st=0 bufi=943 size=1149
pts:234000 pts_time:2.6 dts:230400 dts_time:2.56 duration:0 duration_time:0 stream_index:0
pts:237600 pts_time:2.64 dts:234000 dts_time:2.6 duration:0 duration_time:0 stream_index:0
[mpeg @ 0x555558dbe6f0] buffer underflow st=0 bufi=1469 size=2194
pts:241200 pts_time:2.68 dts:237600 dts_time:2.64 duration:0 duration_time:0 stream_index:0
pts:244800 pts_time:2.72 dts:241200 dts_time:2.68 duration:0 duration_time:0 stream_index:0
[mpeg @ 0x555558dbe6f0] buffer underflow st=0 bufi=1044 size=2450
pts:248400 pts_time:2.76 dts:244800 dts_time:2.72 duration:0 duration_time:0 stream_index:0
[mpeg @ 0x555558dbe6f0] buffer underflow st=0 bufi=626 size=961
pts:252000 pts_time:2.8 dts:248400 dts_time:2.76 duration:0 duration_time:0 stream_index:0
[mpeg @ 0x555558dbe6f0] buffer underflow st=0 bufi=1697 size=1940
pts:255600 pts_time:2.84 dts:252000 dts_time:2.8 duration:0 duration_time:0 stream_index:0
[mpeg @ 0x555558dbe6f0] buffer underflow st=0 bufi=1789 size=27485
[mpeg @ 0x555558dbe6f0] buffer underflow st=0 bufi=3830 size=27485
[mpeg @ 0x555558dbe6f0] buffer underflow st=0 bufi=5871 size=27485
[mpeg @ 0x555558dbe6f0] buffer underflow st=0 bufi=7912 size=27485
[mpeg @ 0x555558dbe6f0] buffer underflow st=0 bufi=9941 size=27485
[mpeg @ 0x555558dbe6f0] buffer underflow st=0 bufi=11982 size=27485
[mpeg @ 0x555558dbe6f0] buffer underflow st=0 bufi=14023 size=27485
[mpeg @ 0x555558dbe6f0] buffer underflow st=0 bufi=16064 size=27485
[mpeg @ 0x555558dbe6f0] buffer underflow st=0 bufi=18105 size=27485
[mpeg @ 0x555558dbe6f0] buffer underflow st=0 bufi=20146 size=27485
[mpeg @ 0x555558dbe6f0] buffer underflow st=0 bufi=22187 size=27485
[mpeg @ 0x555558dbe6f0] buffer underflow st=0 bufi=24228 size=27485
[mpeg @ 0x555558dbe6f0] buffer underflow st=0 bufi=26269 size=27485
pts:259200 pts_time:2.88 dts:255600 dts_time:2.84 duration:0 duration_time:0 stream_index:0
pts:262800 pts_time:2.92 dts:259200 dts_time:2.88 duration:0 duration_time:0 stream_index:0
pts:266400 pts_time:2.96 dts:262800 dts_time:2.92 duration:0 duration_time:0 stream_index:0
[mpeg @ 0x555558dbe6f0] buffer underflow st=0 bufi=402 size=6483
[mpeg @ 0x555558dbe6f0] buffer underflow st=0 bufi=2443 size=6483
[mpeg @ 0x555558dbe6f0] buffer underflow st=0 bufi=4484 size=6483
pts:270000 pts_time:3 dts:266400 dts_time:2.96 duration:0 duration_time:0 stream_index:0
[mpeg @ 0x555558dbe6f0] buffer underflow st=0 bufi=33 size=480
pts:273600 pts_time:3.04 dts:270000 dts_time:3 duration:0 duration_time:0 stream_index:0
pts:277200 pts_time:3.08 dts:273600 dts_time:3.04 duration:0 duration_time:0 stream_index:0
[mpeg @ 0x555558dbe6f0] buffer underflow st=0 bufi=515 size=675
pts:280800 pts_time:3.12 dts:277200 dts_time:3.08 duration:0 duration_time:0 stream_index:0
pts:284400 pts_time:3.16 dts:280800 dts_time:3.12 duration:0 duration_time:0 stream_index:0
pts:288000 pts_time:3.2 dts:284400 dts_time:3.16 duration:0 duration_time:0 stream_index:0
[mpeg @ 0x555558dbe6f0] buffer underflow st=0 bufi=12 size=863
pts:291600 pts_time:3.24 dts:288000 dts_time:3.2 duration:0 duration_time:0 stream_index:0
pts:295200 pts_time:3.28 dts:291600 dts_time:3.24 duration:0 duration_time:0 stream_index:0
[mpeg @ 0x555558dbe6f0] buffer underflow st=0 bufi=980 size=5525
[mpeg @ 0x555558dbe6f0] buffer underflow st=0 bufi=3021 size=5525
[mpeg @ 0x555558dbe6f0] buffer underflow st=0 bufi=5062 size=5525
pts:298800 pts_time:3.32 dts:295200 dts_time:3.28 duration:0 duration_time:0 stream_index:0
[mpeg @ 0x555558dbe6f0] buffer underflow st=0 bufi=1569 size=42074
[mpeg @ 0x555558dbe6f0] buffer underflow st=0 bufi=3610 size=42074
[mpeg @ 0x555558dbe6f0] buffer underflow st=0 bufi=5651 size=42074
[mpeg @ 0x555558dbe6f0] buffer underflow st=0 bufi=7692 size=42074
[mpeg @ 0x555558dbe6f0] buffer underflow st=0 bufi=9733 size=42074
[mpeg @ 0x555558dbe6f0] buffer underflow st=0 bufi=11774 size=42074
[mpeg @ 0x555558dbe6f0] buffer underflow st=0 bufi=13815 size=42074
[mpeg @ 0x555558dbe6f0] buffer underflow st=0 bufi=15856 size=42074
[mpeg @ 0x555558dbe6f0] buffer underflow st=0 bufi=17897 size=42074
[mpeg @ 0x555558dbe6f0] buffer underflow st=0 bufi=19938 size=42074
[mpeg @ 0x555558dbe6f0] buffer underflow st=0 bufi=21979 size=42074
[mpeg @ 0x555558dbe6f0] buffer underflow st=0 bufi=24020 size=42074
[mpeg @ 0x555558dbe6f0] buffer underflow st=0 bufi=26061 size=42074
[mpeg @ 0x555558dbe6f0] buffer underflow st=0 bufi=28102 size=42074
[mpeg @ 0x555558dbe6f0] buffer underflow st=0 bufi=30143 size=42074
[mpeg @ 0x555558dbe6f0] buffer underflow st=0 bufi=32184 size=42074
[mpeg @ 0x555558dbe6f0] buffer underflow st=0 bufi=34225 size=42074
[mpeg @ 0x555558dbe6f0] buffer underflow st=0 bufi=36266 size=42074
[mpeg @ 0x555558dbe6f0] buffer underflow st=0 bufi=38307 size=42074
[mpeg @ 0x555558dbe6f0] buffer underflow st=0 bufi=40348 size=42074
pts:302400 pts_time:3.36 dts:298800 dts_time:3.32 duration:0 duration_time:0 stream_index:0
pts:306000 pts_time:3.4 dts:302400 dts_time:3.36 duration:0 duration_time:0 stream_index:0
[mpeg @ 0x555558dbe6f0] buffer underflow st=0 bufi=123 size=213
pts:309600 pts_time:3.44 dts:306000 dts_time:3.4 duration:0 duration_time:0 stream_index:0
[mpeg @ 0x555558dbe6f0] buffer underflow st=0 bufi=1942 size=8332
[mpeg @ 0x555558dbe6f0] buffer underflow st=0 bufi=3983 size=8332
[mpeg @ 0x555558dbe6f0] buffer underflow st=0 bufi=6024 size=8332
[mpeg @ 0x555558dbe6f0] buffer underflow st=0 bufi=8065 size=8332
pts:313200 pts_time:3.48 dts:309600 dts_time:3.44 duration:0 duration_time:0 stream_index:0
pts:316800 pts_time:3.52 dts:313200 dts_time:3.48 duration:0 duration_time:0 stream_index:0
pts:320400 pts_time:3.56 dts:316800 dts_time:3.52 duration:0 duration_time:0 stream_index:0
pts:324000 pts_time:3.6 dts:320400 dts_time:3.56 duration:0 duration_time:0 stream_index:0
[mpeg @ 0x555558dbe6f0] buffer underflow st=0 bufi=619 size=7309
[mpeg @ 0x555558dbe6f0] buffer underflow st=0 bufi=2660 size=7309
[mpeg @ 0x555558dbe6f0] buffer underflow st=0 bufi=4701 size=7309
[mpeg @ 0x555558dbe6f0] buffer underflow st=0 bufi=6742 size=7309
pts:327600 pts_time:3.64 dts:324000 dts_time:3.6 duration:0 duration_time:0 stream_index:0
pts:331200 pts_time:3.68 dts:327600 dts_time:3.64 duration:0 duration_time:0 stream_index:0
pts:334800 pts_time:3.72 dts:331200 dts_time:3.68 duration:0 duration_time:0 stream_index:0
pts:338400 pts_time:3.76 dts:334800 dts_time:3.72 duration:0 duration_time:0 stream_index:0
[mpeg @ 0x555558dbe6f0] buffer underflow st=0 bufi=863 size=3348
[mpeg @ 0x555558dbe6f0] buffer underflow st=0 bufi=2904 size=3348
pts:342000 pts_time:3.8 dts:338400 dts_time:3.76 duration:0 duration_time:0 stream_index:0
[mpeg @ 0x555558dbe6f0] buffer underflow st=0 bufi=1588 size=37320
[mpeg @ 0x555558dbe6f0] buffer underflow st=0 bufi=3629 size=37320
[mpeg @ 0x555558dbe6f0] buffer underflow st=0 bufi=5670 size=37320
[mpeg @ 0x555558dbe6f0] buffer underflow st=0 bufi=7699 size=37320
[mpeg @ 0x555558dbe6f0] buffer underflow st=0 bufi=9740 size=37320
[mpeg @ 0x555558dbe6f0] buffer underflow st=0 bufi=11781 size=37320
[mpeg @ 0x555558dbe6f0] buffer underflow st=0 bufi=13822 size=37320
[mpeg @ 0x555558dbe6f0] buffer underflow st=0 bufi=15863 size=37320
[mpeg @ 0x555558dbe6f0] buffer underflow st=0 bufi=17904 size=37320
[mpeg @ 0x555558dbe6f0] buffer underflow st=0 bufi=19945 size=37320
[mpeg @ 0x555558dbe6f0] buffer underflow st=0 bufi=21986 size=37320
[mpeg @ 0x555558dbe6f0] buffer underflow st=0 bufi=24027 size=37320
[mpeg @ 0x555558dbe6f0] buffer underflow st=0 bufi=26068 size=37320
[mpeg @ 0x555558dbe6f0] buffer underflow st=0 bufi=28109 size=37320
[mpeg @ 0x555558dbe6f0] buffer underflow st=0 bufi=30150 size=37320
[mpeg @ 0x555558dbe6f0] buffer underflow st=0 bufi=32191 size=37320
[mpeg @ 0x555558dbe6f0] buffer underflow st=0 bufi=34232 size=37320
[mpeg @ 0x555558dbe6f0] buffer underflow st=0 bufi=36273 size=37320
pts:345600 pts_time:3.84 dts:342000 dts_time:3.8 duration:0 duration_time:0 stream_index:0
pts:349200 pts_time:3.88 dts:345600 dts_time:3.84 duration:0 duration_time:0 stream_index:0
pts:352800 pts_time:3.92 dts:349200 dts_time:3.88 duration:0 duration_time:0 stream_index:0
[mpeg @ 0x555558dbe6f0] buffer underflow st=0 bufi=755 size=7293
[mpeg @ 0x555558dbe6f0] buffer underflow st=0 bufi=2796 size=7293
[mpeg @ 0x555558dbe6f0] buffer underflow st=0 bufi=4837 size=7293
[mpeg @ 0x555558dbe6f0] buffer underflow st=0 bufi=6878 size=7293
pts:356400 pts_time:3.96 dts:352800 dts_time:3.92 duration:0 duration_time:0 stream_index:0
[mpeg @ 0x555558dbe6f0] buffer underflow st=0 bufi=1617 size=2222
pts:360000 pts_time:4 dts:356400 dts_time:3.96 duration:0 duration_time:0 stream_index:0
[mpeg @ 0x555558dbe6f0] buffer underflow st=0 bufi=1427 size=19321
[mpeg @ 0x555558dbe6f0] buffer underflow st=0 bufi=3468 size=19321
[mpeg @ 0x555558dbe6f0] buffer underflow st=0 bufi=5509 size=19321
[mpeg @ 0x555558dbe6f0] buffer underflow st=0 bufi=7550 size=19321
[mpeg @ 0x555558dbe6f0] buffer underflow st=0 bufi=9591 size=19321
[mpeg @ 0x555558dbe6f0] buffer underflow st=0 bufi=11632 size=19321
[mpeg @ 0x555558dbe6f0] buffer underflow st=0 bufi=13673 size=19321
[mpeg @ 0x555558dbe6f0] buffer underflow st=0 bufi=15714 size=19321
[mpeg @ 0x555558dbe6f0] buffer underflow st=0 bufi=17755 size=19321
pts:363600 pts_time:4.04 dts:360000 dts_time:4 duration:0 duration_time:0 stream_index:0
[mpeg @ 0x555558dbe6f0] buffer underflow st=0 bufi=466 size=2974
[mpeg @ 0x555558dbe6f0] buffer underflow st=0 bufi=2507 size=2974
pts:367200 pts_time:4.08 dts:363600 dts_time:4.04 duration:0 duration_time:0 stream_index:0
[mpeg @ 0x555558dbe6f0] buffer underflow st=0 bufi=1565 size=2472
pts:370800 pts_time:4.12 dts:367200 dts_time:4.08 duration:0 duration_time:0 stream_index:0
[mpeg @ 0x555558dbe6f0] buffer underflow st=0 bufi=1125 size=1807
pts:374400 pts_time:4.16 dts:370800 dts_time:4.12 duration:0 duration_time:0 stream_index:0
[mpeg @ 0x555558dbe6f0] buffer underflow st=0 bufi=1350 size=3448
[mpeg @ 0x555558dbe6f0] buffer underflow st=0 bufi=3391 size=3448
pts:378000 pts_time:4.2 dts:374400 dts_time:4.16 duration:0 duration_time:0 stream_index:0
[mpeg @ 0x555558dbe6f0] buffer underflow st=0 bufi=1975 size=3337
pts:381600 pts_time:4.24 dts:378000 dts_time:4.2 duration:0 duration_time:0 stream_index:0
[mpeg @ 0x555558dbe6f0] buffer underflow st=0 bufi=670 size=1916
pts:385200 pts_time:4.28 dts:381600 dts_time:4.24 duration:0 duration_time:0 stream_index:0
[mpeg @ 0x555558dbe6f0] buffer underflow st=0 bufi=786 size=2599
pts:388800 pts_time:4.32 dts:385200 dts_time:4.28 duration:0 duration_time:0 stream_index:0
[mpeg @ 0x555558dbe6f0] buffer underflow st=0 bufi=219 size=2097
pts:392400 pts_time:4.36 dts:388800 dts_time:4.32 duration:0 duration_time:0 stream_index:0
[mpeg @ 0x555558dbe6f0] buffer underflow st=0 bufi=154 size=1779
pts:396000 pts_time:4.4 dts:392400 dts_time:4.36 duration:0 duration_time:0 stream_index:0
[mpeg @ 0x555558dbe6f0] buffer underflow st=0 bufi=407 size=2893
[mpeg @ 0x555558dbe6f0] buffer underflow st=0 bufi=2448 size=2893
pts:399600 pts_time:4.44 dts:396000 dts_time:4.4 duration:0 duration_time:0 stream_index:0
[mpeg @ 0x555558dbe6f0] buffer underflow st=0 bufi=1587 size=2200
pts:403200 pts_time:4.48 dts:399600 dts_time:4.44 duration:0 duration_time:0 stream_index:0
[mpeg @ 0x555558dbe6f0] buffer underflow st=0 bufi=1419 size=10176
[mpeg @ 0x555558dbe6f0] buffer underflow st=0 bufi=3460 size=10176
[mpeg @ 0x555558dbe6f0] buffer underflow st=0 bufi=5501 size=10176
[mpeg @ 0x555558dbe6f0] buffer underflow st=0 bufi=7542 size=10176
[mpeg @ 0x555558dbe6f0] buffer underflow st=0 bufi=9583 size=10176
pts:406800 pts_time:4.52 dts:403200 dts_time:4.48 duration:0 duration_time:0 stream_index:0
[mpeg @ 0x555558dbe6f0] buffer underflow st=0 bufi=1439 size=3742
[mpeg @ 0x555558dbe6f0] buffer underflow st=0 bufi=3480 size=3742
pts:410400 pts_time:4.56 dts:406800 dts_time:4.52 duration:0 duration_time:0 stream_index:0
[mpeg @ 0x555558dbe6f0] buffer underflow st=0 bufi=1770 size=1916
pts:414000 pts_time:4.6 dts:410400 dts_time:4.56 duration:0 duration_time:0 stream_index:0
[mpeg @ 0x555558dbe6f0] buffer underflow st=0 bufi=1886 size=2376
pts:417600 pts_time:4.64 dts:414000 dts_time:4.6 duration:0 duration_time:0 stream_index:0
[mpeg @ 0x555558dbe6f0] buffer underflow st=0 bufi=1515 size=2926
pts:421200 pts_time:4.68 dts:417600 dts_time:4.64 duration:0 duration_time:0 stream_index:0
[mpeg @ 0x555558dbe6f0] buffer underflow st=0 bufi=621 size=1850
pts:424800 pts_time:4.72 dts:421200 dts_time:4.68 duration:0 duration_time:0 stream_index:0
[mpeg @ 0x555558dbe6f0] buffer underflow st=0 bufi=803 size=2278
pts:428400 pts_time:4.76 dts:424800 dts_time:4.72 duration:0 duration_time:0 stream_index:0
[mpeg @ 0x555558dbe6f0] buffer underflow st=0 bufi=557 size=2443
pts:432000 pts_time:4.8 dts:428400 dts_time:4.76 duration:0 duration_time:0 stream_index:0
[mpeg @ 0x555558dbe6f0] buffer underflow st=0 bufi=146 size=1925
pts:435600 pts_time:4.84 dts:432000 dts_time:4.8 duration:0 duration_time:0 stream_index:0
[mpeg @ 0x555558dbe6f0] buffer underflow st=0 bufi=253 size=2072
pts:439200 pts_time:4.88 dts:435600 dts_time:4.84 duration:0 duration_time:0 stream_index:0
[mpeg @ 0x555558dbe6f0] buffer underflow st=0 bufi=213 size=3557
[mpeg @ 0x555558dbe6f0] buffer underflow st=0 bufi=2254 size=3557
pts:442800 pts_time:4.92 dts:439200 dts_time:4.88 duration:0 duration_time:0 stream_index:0
[mpeg @ 0x555558dbe6f0] buffer underflow st=0 bufi=729 size=1582
pts:446400 pts_time:4.96 dts:442800 dts_time:4.92 duration:0 duration_time:0 stream_index:0
[mpeg @ 0x555558dbe6f0] buffer underflow st=0 bufi=1179 size=9931
[mpeg @ 0x555558dbe6f0] buffer underflow st=0 bufi=3220 size=9931
[mpeg @ 0x555558dbe6f0] buffer underflow st=0 bufi=5261 size=9931
[mpeg @ 0x555558dbe6f0] buffer underflow st=0 bufi=7302 size=9931
[mpeg @ 0x555558dbe6f0] buffer underflow st=0 bufi=9343 size=9931
pts:450000 pts_time:5 dts:446400 dts_time:4.96 duration:0 duration_time:0 stream_index:0
[mpeg @ 0x555558dbe6f0] buffer underflow st=0 bufi=1444 size=3324
pts:453600 pts_time:5.04 dts:450000 dts_time:5 duration:0 duration_time:0 stream_index:0
[mpeg @ 0x555558dbe6f0] buffer underflow st=0 bufi=152 size=3140
[mpeg @ 0x555558dbe6f0] buffer underflow st=0 bufi=2193 size=3140
pts:457200 pts_time:5.08 dts:453600 dts_time:5.04 duration:0 duration_time:0 stream_index:0
[mpeg @ 0x555558dbe6f0] buffer underflow st=0 bufi=1085 size=2022
pts:460800 pts_time:5.12 dts:457200 dts_time:5.08 duration:0 duration_time:0 stream_index:0
[mpeg @ 0x555558dbe6f0] buffer underflow st=0 bufi=1095 size=2417
pts:464400 pts_time:5.16 dts:460800 dts_time:5.12 duration:0 duration_time:0 stream_index:0
[mpeg @ 0x555558dbe6f0] buffer underflow st=0 bufi=710 size=3243
[mpeg @ 0x555558dbe6f0] buffer underflow st=0 bufi=2751 size=3243
pts:468000 pts_time:5.2 dts:464400 dts_time:5.16 duration:0 duration_time:0 stream_index:0
[mpeg @ 0x555558dbe6f0] buffer underflow st=0 bufi=1540 size=2056
pts:471600 pts_time:5.24 dts:468000 dts_time:5.2 duration:0 duration_time:0 stream_index:0
[mpeg @ 0x555558dbe6f0] buffer underflow st=0 bufi=1516 size=3183
pts:475200 pts_time:5.28 dts:471600 dts_time:5.24 duration:0 duration_time:0 stream_index:0
[mpeg @ 0x555558dbe6f0] buffer underflow st=0 bufi=365 size=2608
[mpeg @ 0x555558dbe6f0] buffer underflow st=0 bufi=2406 size=2608
pts:478800 pts_time:5.32 dts:475200 dts_time:5.28 duration:0 duration_time:0 stream_index:0
[mpeg @ 0x555558dbe6f0] buffer underflow st=0 bufi=1830 size=2251
pts:482400 pts_time:5.36 dts:478800 dts_time:5.32 duration:0 duration_time:0 stream_index:0
[mpeg @ 0x555558dbe6f0] buffer underflow st=0 bufi=1611 size=3862
[mpeg @ 0x555558dbe6f0] buffer underflow st=0 bufi=3652 size=3862
pts:486000 pts_time:5.4 dts:482400 dts_time:5.36 duration:0 duration_time:0 stream_index:0
[mpeg @ 0x555558dbe6f0] buffer underflow st=0 bufi=1822 size=2533
pts:489600 pts_time:5.44 dts:486000 dts_time:5.4 duration:0 duration_time:0 stream_index:0
[mpeg @ 0x555558dbe6f0] buffer underflow st=0 bufi=1321 size=10213
[mpeg @ 0x555558dbe6f0] buffer underflow st=0 bufi=3362 size=10213
[mpeg @ 0x555558dbe6f0] buffer underflow st=0 bufi=5403 size=10213
[mpeg @ 0x555558dbe6f0] buffer underflow st=0 bufi=7444 size=10213
[mpeg @ 0x555558dbe6f0] buffer underflow st=0 bufi=9485 size=10213
pts:493200 pts_time:5.48 dts:489600 dts_time:5.44 duration:0 duration_time:0 stream_index:0
[mpeg @ 0x555558dbe6f0] buffer underflow st=0 bufi=1304 size=3995
[mpeg @ 0x555558dbe6f0] buffer underflow st=0 bufi=3345 size=3995
pts:496800 pts_time:5.52 dts:493200 dts_time:5.48 duration:0 duration_time:0 stream_index:0
[mpeg @ 0x555558dbe6f0] buffer underflow st=0 bufi=1382 size=2763
pts:500400 pts_time:5.56 dts:496800 dts_time:5.52 duration:0 duration_time:0 stream_index:0
[mpeg @ 0x555558dbe6f0] buffer underflow st=0 bufi=651 size=2249
pts:504000 pts_time:5.6 dts:500400 dts_time:5.56 duration:0 duration_time:0 stream_index:0
[mpeg @ 0x555558dbe6f0] buffer underflow st=0 bufi=434 size=2531
[mpeg @ 0x555558dbe6f0] buffer underflow st=0 bufi=2475 size=2531
pts:507600 pts_time:5.64 dts:504000 dts_time:5.6 duration:0 duration_time:0 stream_index:0
pts:511200 pts_time:5.68 dts:507600 dts_time:5.64 duration:0 duration_time:0 stream_index:0
[mpeg @ 0x555558dbe6f0] buffer underflow st=0 bufi=302 size=2611
[mpeg @ 0x555558dbe6f0] buffer underflow st=0 bufi=2343 size=2611
pts:514800 pts_time:5.72 dts:511200 dts_time:5.68 duration:0 duration_time:0 stream_index:0
[mpeg @ 0x555558dbe6f0] buffer underflow st=0 bufi=1764 size=2597
pts:518400 pts_time:5.76 dts:514800 dts_time:5.72 duration:0 duration_time:0 stream_index:0
[mpeg @ 0x555558dbe6f0] buffer underflow st=0 bufi=1199 size=1815
pts:522000 pts_time:5.8 dts:518400 dts_time:5.76 duration:0 duration_time:0 stream_index:0
[mpeg @ 0x555558dbe6f0] buffer underflow st=0 bufi=1416 size=2171
pts:525600 pts_time:5.84 dts:522000 dts_time:5.8 duration:0 duration_time:0 stream_index:0
[mpeg @ 0x555558dbe6f0] buffer underflow st=0 bufi=1277 size=3575
[mpeg @ 0x555558dbe6f0] buffer underflow st=0 bufi=3318 size=3575
pts:529200 pts_time:5.88 dts:525600 dts_time:5.84 duration:0 duration_time:0 stream_index:0
[mpeg @ 0x555558dbe6f0] buffer underflow st=0 bufi=1775 size=1870
pts:532800 pts_time:5.92 dts:529200 dts_time:5.88 duration:0 duration_time:0 stream_index:0
[mpeg @ 0x555558dbe6f0] buffer underflow st=0 bufi=1937 size=9703
[mpeg @ 0x555558dbe6f0] buffer underflow st=0 bufi=3978 size=9703
[mpeg @ 0x555558dbe6f0] buffer underflow st=0 bufi=6019 size=9703
[mpeg @ 0x555558dbe6f0] buffer underflow st=0 bufi=8060 size=9703
pts:536400 pts_time:5.96 dts:532800 dts_time:5.92 duration:0 duration_time:0 stream_index:0
[mpeg @ 0x555558dbe6f0] buffer underflow st=0 bufi=377 size=3304
[mpeg @ 0x555558dbe6f0] buffer underflow st=0 bufi=2418 size=3304
pts:540000 pts_time:6 dts:536400 dts_time:5.96 duration:0 duration_time:0 stream_index:0
[mpeg @ 0x555558dbe6f0] buffer underflow st=0 bufi=1146 size=3307
[mpeg @ 0x555558dbe6f0] buffer underflow st=0 bufi=3187 size=3307
pts:543600 pts_time:6.04 dts:540000 dts_time:6 duration:0 duration_time:0 stream_index:0
pts:547200 pts_time:6.08 dts:543600 dts_time:6.04 duration:0 duration_time:0 stream_index:0
[mpeg @ 0x555558dbe6f0] buffer underflow st=0 bufi=69 size=1746
pts:550800 pts_time:6.12 dts:547200 dts_time:6.08 duration:0 duration_time:0 stream_index:0
[mpeg @ 0x555558dbe6f0] buffer underflow st=0 bufi=355 size=2669
[mpeg @ 0x555558dbe6f0] buffer underflow st=0 bufi=2396 size=2669
pts:554400 pts_time:6.16 dts:550800 dts_time:6.12 duration:0 duration_time:0 stream_index:0
[mpeg @ 0x555558dbe6f0] buffer underflow st=0 bufi=1759 size=1908
pts:558000 pts_time:6.2 dts:554400 dts_time:6.16 duration:0 duration_time:0 stream_index:0
[mpeg @ 0x555558dbe6f0] buffer underflow st=0 bufi=1883 size=2689
pts:561600 pts_time:6.24 dts:558000 dts_time:6.2 duration:0 duration_time:0 stream_index:0
[mpeg @ 0x555558dbe6f0] buffer underflow st=0 bufi=1226 size=2047
pts:565200 pts_time:6.28 dts:561600 dts_time:6.24 duration:0 duration_time:0 stream_index:0
[mpeg @ 0x555558dbe6f0] buffer underflow st=0 bufi=1211 size=1836
pts:568800 pts_time:6.32 dts:565200 dts_time:6.28 duration:0 duration_time:0 stream_index:0
[mpeg @ 0x555558dbe6f0] buffer underflow st=0 bufi=1407 size=3347
pts:572400 pts_time:6.36 dts:568800 dts_time:6.32 duration:0 duration_time:0 stream_index:0
[mpeg @ 0x555558dbe6f0] buffer underflow st=0 bufi=92 size=2283
[mpeg @ 0x555558dbe6f0] buffer underflow st=0 bufi=2133 size=2283
pts:576000 pts_time:6.4 dts:572400 dts_time:6.36 duration:0 duration_time:0 stream_index:0
[mpeg @ 0x555558dbe6f0] buffer underflow st=0 bufi=1882 size=9850
[mpeg @ 0x555558dbe6f0] buffer underflow st=0 bufi=3923 size=9850
[mpeg @ 0x555558dbe6f0] buffer underflow st=0 bufi=5964 size=9850
[mpeg @ 0x555558dbe6f0] buffer underflow st=0 bufi=8005 size=9850
pts:579600 pts_time:6.44 dts:576000 dts_time:6.4 duration:0 duration_time:0 stream_index:0
[mpeg @ 0x555558dbe6f0] buffer underflow st=0 bufi=187 size=3531
[mpeg @ 0x555558dbe6f0] buffer underflow st=0 bufi=2228 size=3531
pts:583200 pts_time:6.48 dts:579600 dts_time:6.44 duration:0 duration_time:0 stream_index:0
[mpeg @ 0x555558dbe6f0] buffer underflow st=0 bufi=729 size=3146
[mpeg @ 0x555558dbe6f0] buffer underflow st=0 bufi=2770 size=3146
pts:586800 pts_time:6.52 dts:583200 dts_time:6.48 duration:0 duration_time:0 stream_index:0
pts:590400 pts_time:6.56 dts:586800 dts_time:6.52 duration:0 duration_time:0 stream_index:0
[mpeg @ 0x555558dbe6f0] buffer underflow st=0 bufi=67 size=1983
pts:594000 pts_time:6.6 dts:590400 dts_time:6.56 duration:0 duration_time:0 stream_index:0
[mpeg @ 0x555558dbe6f0] buffer underflow st=0 bufi=116 size=2031
pts:597600 pts_time:6.64 dts:594000 dts_time:6.6 duration:0 duration_time:0 stream_index:0
[mpeg @ 0x555558dbe6f0] buffer underflow st=0 bufi=117 size=2802
[mpeg @ 0x555558dbe6f0] buffer underflow st=0 bufi=2158 size=2802
pts:601200 pts_time:6.68 dts:597600 dts_time:6.64 duration:0 duration_time:0 stream_index:0
[mpeg @ 0x555558dbe6f0] buffer underflow st=0 bufi=1388 size=2968
pts:604800 pts_time:6.72 dts:601200 dts_time:6.68 duration:0 duration_time:0 stream_index:0
[mpeg @ 0x555558dbe6f0] buffer underflow st=0 bufi=452 size=1719
pts:608400 pts_time:6.76 dts:604800 dts_time:6.72 duration:0 duration_time:0 stream_index:0
[mpeg @ 0x555558dbe6f0] buffer underflow st=0 bufi=765 size=2233
pts:612000 pts_time:6.8 dts:608400 dts_time:6.76 duration:0 duration_time:0 stream_index:0
[mpeg @ 0x555558dbe6f0] buffer underflow st=0 bufi=564 size=3807
[mpeg @ 0x555558dbe6f0] buffer underflow st=0 bufi=2605 size=3807
pts:615600 pts_time:6.84 dts:612000 dts_time:6.8 duration:0 duration_time:0 stream_index:0
[mpeg @ 0x555558dbe6f0] buffer underflow st=0 bufi=830 size=1707
pts:619200 pts_time:6.88 dts:615600 dts_time:6.84 duration:0 duration_time:0 stream_index:0
[mpeg @ 0x555558dbe6f0] buffer underflow st=0 bufi=1155 size=9877
[mpeg @ 0x555558dbe6f0] buffer underflow st=0 bufi=3196 size=9877
[mpeg @ 0x555558dbe6f0] buffer underflow st=0 bufi=5237 size=9877
[mpeg @ 0x555558dbe6f0] buffer underflow st=0 bufi=7278 size=9877
[mpeg @ 0x555558dbe6f0] buffer underflow st=0 bufi=9319 size=9877
pts:622800 pts_time:6.92 dts:619200 dts_time:6.88 duration:0 duration_time:0 stream_index:0
[mpeg @ 0x555558dbe6f0] buffer underflow st=0 bufi=1474 size=3340
pts:626400 pts_time:6.96 dts:622800 dts_time:6.92 duration:0 duration_time:0 stream_index:0
[mpeg @ 0x555558dbe6f0] buffer underflow st=0 bufi=166 size=3230
[mpeg @ 0x555558dbe6f0] buffer underflow st=0 bufi=2207 size=3230
pts:630000 pts_time:7 dts:626400 dts_time:6.96 duration:0 duration_time:0 stream_index:0
[mpeg @ 0x555558dbe6f0] buffer underflow st=0 bufi=1009 size=1969
pts:633600 pts_time:7.04 dts:630000 dts_time:7 duration:0 duration_time:0 stream_index:0
[mpeg @ 0x555558dbe6f0] buffer underflow st=0 bufi=1072 size=2099
pts:637200 pts_time:7.08 dts:633600 dts_time:7.04 duration:0 duration_time:0 stream_index:0
[mpeg @ 0x555558dbe6f0] buffer underflow st=0 bufi=1005 size=2738
pts:640800 pts_time:7.12 dts:637200 dts_time:7.08 duration:0 duration_time:0 stream_index:0
[mpeg @ 0x555558dbe6f0] buffer underflow st=0 bufi=299 size=1795
pts:644400 pts_time:7.16 dts:640800 dts_time:7.12 duration:0 duration_time:0 stream_index:0
[mpeg @ 0x555558dbe6f0] buffer underflow st=0 bufi=536 size=2946
[mpeg @ 0x555558dbe6f0] buffer underflow st=0 bufi=2577 size=2946
pts:648000 pts_time:7.2 dts:644400 dts_time:7.16 duration:0 duration_time:0 stream_index:0
[mpeg @ 0x555558dbe6f0] buffer underflow st=0 bufi=1663 size=2561
pts:651600 pts_time:7.24 dts:648000 dts_time:7.2 duration:0 duration_time:0 stream_index:0
[mpeg @ 0x555558dbe6f0] buffer underflow st=0 bufi=1134 size=2210
pts:655200 pts_time:7.28 dts:651600 dts_time:7.24 duration:0 duration_time:0 stream_index:0
[mpeg @ 0x555558dbe6f0] buffer underflow st=0 bufi=956 size=3737
[mpeg @ 0x555558dbe6f0] buffer underflow st=0 bufi=2997 size=3737
pts:658800 pts_time:7.32 dts:655200 dts_time:7.28 duration:0 duration_time:0 stream_index:0
[mpeg @ 0x555558dbe6f0] buffer underflow st=0 bufi=1292 size=2604
pts:662400 pts_time:7.36 dts:658800 dts_time:7.32 duration:0 duration_time:0 stream_index:0
[mpeg @ 0x555558dbe6f0] buffer underflow st=0 bufi=720 size=10293
[mpeg @ 0x555558dbe6f0] buffer underflow st=0 bufi=2749 size=10293
[mpeg @ 0x555558dbe6f0] buffer underflow st=0 bufi=4790 size=10293
[mpeg @ 0x555558dbe6f0] buffer underflow st=0 bufi=6831 size=10293
[mpeg @ 0x555558dbe6f0] buffer underflow st=0 bufi=8872 size=10293
pts:666000 pts_time:7.4 dts:662400 dts_time:7.36 duration:0 duration_time:0 stream_index:0
[mpeg @ 0x555558dbe6f0] buffer underflow st=0 bufi=611 size=3961
[mpeg @ 0x555558dbe6f0] buffer underflow st=0 bufi=2652 size=3961
pts:669600 pts_time:7.44 dts:666000 dts_time:7.4 duration:0 duration_time:0 stream_index:0
[mpeg @ 0x555558dbe6f0] buffer underflow st=0 bufi=723 size=3410
[mpeg @ 0x555558dbe6f0] buffer underflow st=0 bufi=2764 size=3410
pts:673200 pts_time:7.48 dts:669600 dts_time:7.44 duration:0 duration_time:0 stream_index:0
[mpeg @ 0x555558dbe6f0] buffer underflow st=0 bufi=1386 size=2243
pts:676800 pts_time:7.52 dts:673200 dts_time:7.48 duration:0 duration_time:0 stream_index:0
[mpeg @ 0x555558dbe6f0] buffer underflow st=0 bufi=1175 size=2741
pts:680400 pts_time:7.56 dts:676800 dts_time:7.52 duration:0 duration_time:0 stream_index:0
[mpeg @ 0x555558dbe6f0] buffer underflow st=0 bufi=466 size=2743
[mpeg @ 0x555558dbe6f0] buffer underflow st=0 bufi=2507 size=2743
pts:684000 pts_time:7.6 dts:680400 dts_time:7.56 duration:0 duration_time:0 stream_index:0
[mpeg @ 0x555558dbe6f0] buffer underflow st=0 bufi=1796 size=2618
pts:687600 pts_time:7.64 dts:684000 dts_time:7.6 duration:0 duration_time:0 stream_index:0
[mpeg @ 0x555558dbe6f0] buffer underflow st=0 bufi=1210 size=2760
pts:691200 pts_time:7.68 dts:687600 dts_time:7.64 duration:0 duration_time:0 stream_index:0
[mpeg @ 0x555558dbe6f0] buffer underflow st=0 bufi=482 size=1725
pts:694800 pts_time:7.72 dts:691200 dts_time:7.68 duration:0 duration_time:0 stream_index:0
[mpeg @ 0x555558dbe6f0] buffer underflow st=0 bufi=789 size=1609
pts:698400 pts_time:7.76 dts:694800 dts_time:7.72 duration:0 duration_time:0 stream_index:0
[mpeg @ 0x555558dbe6f0] buffer underflow st=0 bufi=1212 size=2920
pts:702000 pts_time:7.8 dts:698400 dts_time:7.76 duration:0 duration_time:0 stream_index:0
[mpeg @ 0x555558dbe6f0] buffer underflow st=0 bufi=324 size=1467
pts:705600 pts_time:7.84 dts:702000 dts_time:7.8 duration:0 duration_time:0 stream_index:0
[mpeg @ 0x555558dbe6f0] buffer underflow st=0 bufi=889 size=9452
[mpeg @ 0x555558dbe6f0] buffer underflow st=0 bufi=2930 size=9452
[mpeg @ 0x555558dbe6f0] buffer underflow st=0 bufi=4971 size=9452
[mpeg @ 0x555558dbe6f0] buffer underflow st=0 bufi=7012 size=9452
[mpeg @ 0x555558dbe6f0] buffer underflow st=0 bufi=9053 size=9452
pts:709200 pts_time:7.88 dts:705600 dts_time:7.84 duration:0 duration_time:0 stream_index:0
[mpeg @ 0x555558dbe6f0] buffer underflow st=0 bufi=1633 size=3034
pts:712800 pts_time:7.92 dts:709200 dts_time:7.88 duration:0 duration_time:0 stream_index:0
[mpeg @ 0x555558dbe6f0] buffer underflow st=0 bufi=631 size=2568
pts:716400 pts_time:7.96 dts:712800 dts_time:7.92 duration:0 duration_time:0 stream_index:0
[mpeg @ 0x555558dbe6f0] buffer underflow st=0 bufi=95 size=1456
pts:720000 pts_time:8 dts:716400 dts_time:7.96 duration:0 duration_time:0 stream_index:0
[mpeg @ 0x555558dbe6f0] buffer underflow st=0 bufi=671 size=2242
pts:723600 pts_time:8.04 dts:720000 dts_time:8 duration:0 duration_time:0 stream_index:0
[mpeg @ 0x555558dbe6f0] buffer underflow st=0 bufi=461 size=2680
[mpeg @ 0x555558dbe6f0] buffer underflow st=0 bufi=2502 size=2680
pts:727200 pts_time:8.08 dts:723600 dts_time:8.04 duration:0 duration_time:0 stream_index:0
[mpeg @ 0x555558dbe6f0] buffer underflow st=0 bufi=1854 size=2070
pts:730800 pts_time:8.12 dts:727200 dts_time:8.08 duration:0 duration_time:0 stream_index:0
[mpeg @ 0x555558dbe6f0] buffer underflow st=0 bufi=1816 size=2661
pts:734400 pts_time:8.16 dts:730800 dts_time:8.12 duration:0 duration_time:0 stream_index:0
[mpeg @ 0x555558dbe6f0] buffer underflow st=0 bufi=1187 size=2139
pts:738000 pts_time:8.2 dts:734400 dts_time:8.16 duration:0 duration_time:0 stream_index:0
[mpeg @ 0x555558dbe6f0] buffer underflow st=0 bufi=1080 size=1955
pts:741600 pts_time:8.24 dts:738000 dts_time:8.2 duration:0 duration_time:0 stream_index:0
[mpeg @ 0x555558dbe6f0] buffer underflow st=0 bufi=1157 size=3623
[mpeg @ 0x555558dbe6f0] buffer underflow st=0 bufi=3198 size=3623
pts:745200 pts_time:8.28 dts:741600 dts_time:8.24 duration:0 duration_time:0 stream_index:0
[mpeg @ 0x555558dbe6f0] buffer underflow st=0 bufi=1607 size=2419
pts:748800 pts_time:8.32 dts:745200 dts_time:8.28 duration:0 duration_time:0 stream_index:0
[mpeg @ 0x555558dbe6f0] buffer underflow st=0 bufi=1220 size=9952
[mpeg @ 0x555558dbe6f0] buffer underflow st=0 bufi=3261 size=9952
[mpeg @ 0x555558dbe6f0] buffer underflow st=0 bufi=5302 size=9952
[mpeg @ 0x555558dbe6f0] buffer underflow st=0 bufi=7343 size=9952
[mpeg @ 0x555558dbe6f0] buffer underflow st=0 bufi=9384 size=9952
pts:752400 pts_time:8.36 dts:748800 dts_time:8.32 duration:0 duration_time:0 stream_index:0
[mpeg @ 0x555558dbe6f0] buffer underflow st=0 bufi=1464 size=2925
pts:756000 pts_time:8.4 dts:752400 dts_time:8.36 duration:0 duration_time:0 stream_index:0
[mpeg @ 0x555558dbe6f0] buffer underflow st=0 bufi=571 size=2509
pts:759600 pts_time:8.44 dts:756000 dts_time:8.4 duration:0 duration_time:0 stream_index:0
[mpeg @ 0x555558dbe6f0] buffer underflow st=0 bufi=94 size=1641
pts:763200 pts_time:8.48 dts:759600 dts_time:8.44 duration:0 duration_time:0 stream_index:0
[mpeg @ 0x555558dbe6f0] buffer underflow st=0 bufi=485 size=2176
pts:766800 pts_time:8.52 dts:763200 dts_time:8.48 duration:0 duration_time:0 stream_index:0
[mpeg @ 0x555558dbe6f0] buffer underflow st=0 bufi=341 size=1833
pts:770400 pts_time:8.56 dts:766800 dts_time:8.52 duration:0 duration_time:0 stream_index:0
[mpeg @ 0x555558dbe6f0] buffer underflow st=0 bufi=540 size=2114
pts:774000 pts_time:8.6 dts:770400 dts_time:8.56 duration:0 duration_time:0 stream_index:0
[mpeg @ 0x555558dbe6f0] buffer underflow st=0 bufi=458 size=3380
[mpeg @ 0x555558dbe6f0] buffer underflow st=0 bufi=2499 size=3380
pts:777600 pts_time:8.64 dts:774000 dts_time:8.6 duration:0 duration_time:0 stream_index:0
[mpeg @ 0x555558dbe6f0] buffer underflow st=0 bufi=1151 size=1918
pts:781200 pts_time:8.68 dts:777600 dts_time:8.64 duration:0 duration_time:0 stream_index:0
[mpeg @ 0x555558dbe6f0] buffer underflow st=0 bufi=1265 size=2062
pts:784800 pts_time:8.72 dts:781200 dts_time:8.68 duration:0 duration_time:0 stream_index:0
[mpeg @ 0x555558dbe6f0] buffer underflow st=0 bufi=1235 size=3387
[mpeg @ 0x555558dbe6f0] buffer underflow st=0 bufi=3264 size=3387
pts:788400 pts_time:8.76 dts:784800 dts_time:8.72 duration:0 duration_time:0 stream_index:0
pts:792000 pts_time:8.8 dts:788400 dts_time:8.76 duration:0 duration_time:0 stream_index:0
[mpeg @ 0x555558dbe6f0] buffer underflow st=0 bufi=225 size=9885
[mpeg @ 0x555558dbe6f0] buffer underflow st=0 bufi=2266 size=9885
[mpeg @ 0x555558dbe6f0] buffer underflow st=0 bufi=4307 size=9885
[mpeg @ 0x555558dbe6f0] buffer underflow st=0 bufi=6348 size=9885
[mpeg @ 0x555558dbe6f0] buffer underflow st=0 bufi=8389 size=9885
pts:795600 pts_time:8.84 dts:792000 dts_time:8.8 duration:0 duration_time:0 stream_index:0
[mpeg @ 0x555558dbe6f0] buffer underflow st=0 bufi=536 size=3312
[mpeg @ 0x555558dbe6f0] buffer underflow st=0 bufi=2577 size=3312
pts:799200 pts_time:8.88 dts:795600 dts_time:8.84 duration:0 duration_time:0 stream_index:0
[mpeg @ 0x555558dbe6f0] buffer underflow st=0 bufi=1297 size=3112
pts:802800 pts_time:8.92 dts:799200 dts_time:8.88 duration:0 duration_time:0 stream_index:0
[mpeg @ 0x555558dbe6f0] buffer underflow st=0 bufi=217 size=2077
pts:806400 pts_time:8.96 dts:802800 dts_time:8.92 duration:0 duration_time:0 stream_index:0
[mpeg @ 0x555558dbe6f0] buffer underflow st=0 bufi=172 size=1988
pts:810000 pts_time:9 dts:806400 dts_time:8.96 duration:0 duration_time:0 stream_index:0
[mpeg @ 0x555558dbe6f0] buffer underflow st=0 bufi=216 size=2708
[mpeg @ 0x555558dbe6f0] buffer underflow st=0 bufi=2257 size=2708
pts:813600 pts_time:9.04 dts:810000 dts_time:9 duration:0 duration_time:0 stream_index:0
[mpeg @ 0x555558dbe6f0] buffer underflow st=0 bufi=1581 size=1710
pts:817200 pts_time:9.08 dts:813600 dts_time:9.04 duration:0 duration_time:0 stream_index:0
[mpeg @ 0x555558dbe6f0] buffer underflow st=0 bufi=1903 size=2758
pts:820800 pts_time:9.12 dts:817200 dts_time:9.08 duration:0 duration_time:0 stream_index:0
[mpeg @ 0x555558dbe6f0] buffer underflow st=0 bufi=1177 size=2185
pts:824400 pts_time:9.16 dts:820800 dts_time:9.12 duration:0 duration_time:0 stream_index:0
[mpeg @ 0x555558dbe6f0] buffer underflow st=0 bufi=1024 size=1990
pts:828000 pts_time:9.2 dts:824400 dts_time:9.16 duration:0 duration_time:0 stream_index:0
[mpeg @ 0x555558dbe6f0] buffer underflow st=0 bufi=1066 size=3701
[mpeg @ 0x555558dbe6f0] buffer underflow st=0 bufi=3107 size=3701
pts:831600 pts_time:9.24 dts:828000 dts_time:9.2 duration:0 duration_time:0 stream_index:0
[mpeg @ 0x555558dbe6f0] buffer underflow st=0 bufi=1438 size=2480
pts:835200 pts_time:9.28 dts:831600 dts_time:9.24 duration:0 duration_time:0 stream_index:0
[mpeg @ 0x555558dbe6f0] buffer underflow st=0 bufi=990 size=10215
[mpeg @ 0x555558dbe6f0] buffer underflow st=0 bufi=3031 size=10215
[mpeg @ 0x555558dbe6f0] buffer underflow st=0 bufi=5072 size=10215
[mpeg @ 0x555558dbe6f0] buffer underflow st=0 bufi=7113 size=10215
[mpeg @ 0x555558dbe6f0] buffer underflow st=0 bufi=9154 size=10215
pts:838800 pts_time:9.32 dts:835200 dts_time:9.28 duration:0 duration_time:0 stream_index:0
[mpeg @ 0x555558dbe6f0] buffer underflow st=0 bufi=971 size=4026
[mpeg @ 0x555558dbe6f0] buffer underflow st=0 bufi=3012 size=4026
pts:842400 pts_time:9.36 dts:838800 dts_time:9.32 duration:0 duration_time:0 stream_index:0
[mpeg @ 0x555558dbe6f0] buffer underflow st=0 bufi=1018 size=3349
[mpeg @ 0x555558dbe6f0] buffer underflow st=0 bufi=3059 size=3349
pts:846000 pts_time:9.4 dts:842400 dts_time:9.36 duration:0 duration_time:0 stream_index:0
[mpeg @ 0x555558dbe6f0] buffer underflow st=0 bufi=1742 size=2396
pts:849600 pts_time:9.44 dts:846000 dts_time:9.4 duration:0 duration_time:0 stream_index:0
[mpeg @ 0x555558dbe6f0] buffer underflow st=0 bufi=1378 size=2770
pts:853200 pts_time:9.48 dts:849600 dts_time:9.44 duration:0 duration_time:0 stream_index:0
[mpeg @ 0x555558dbe6f0] buffer underflow st=0 bufi=640 size=2786
[mpeg @ 0x555558dbe6f0] buffer underflow st=0 bufi=2681 size=2786
pts:856800 pts_time:9.52 dts:853200 dts_time:9.48 duration:0 duration_time:0 stream_index:0
[mpeg @ 0x555558dbe6f0] buffer underflow st=0 bufi=1927 size=2533
pts:860400 pts_time:9.56 dts:856800 dts_time:9.52 duration:0 duration_time:0 stream_index:0
[mpeg @ 0x555558dbe6f0] buffer underflow st=0 bufi=1426 size=3025
pts:864000 pts_time:9.6 dts:860400 dts_time:9.56 duration:0 duration_time:0 stream_index:0
[mpeg @ 0x555558dbe6f0] buffer underflow st=0 bufi=433 size=2210
pts:867600 pts_time:9.64 dts:864000 dts_time:9.6 duration:0 duration_time:0 stream_index:0
[mpeg @ 0x555558dbe6f0] buffer underflow st=0 bufi=255 size=2628
[mpeg @ 0x555558dbe6f0] buffer underflow st=0 bufi=2296 size=2628
pts:871200 pts_time:9.68 dts:867600 dts_time:9.64 duration:0 duration_time:0 stream_index:0
[mpeg @ 0x555558dbe6f0] buffer underflow st=0 bufi=1700 size=4005
[mpeg @ 0x555558dbe6f0] buffer underflow st=0 bufi=3741 size=4005
pts:874800 pts_time:9.72 dts:871200 dts_time:9.68 duration:0 duration_time:0 stream_index:0
[mpeg @ 0x555558dbe6f0] buffer underflow st=0 bufi=1768 size=1986
pts:878400 pts_time:9.76 dts:874800 dts_time:9.72 duration:0 duration_time:0 stream_index:0
[mpeg @ 0x555558dbe6f0] buffer underflow st=0 bufi=1814 size=9686
[mpeg @ 0x555558dbe6f0] buffer underflow st=0 bufi=3855 size=9686
[mpeg @ 0x555558dbe6f0] buffer underflow st=0 bufi=5896 size=9686
[mpeg @ 0x555558dbe6f0] buffer underflow st=0 bufi=7937 size=9686
pts:882000 pts_time:9.8 dts:878400 dts_time:9.76 duration:0 duration_time:0 stream_index:0
[mpeg @ 0x555558dbe6f0] buffer underflow st=0 bufi=283 size=3341
[mpeg @ 0x555558dbe6f0] buffer underflow st=0 bufi=2324 size=3341
pts:885600 pts_time:9.84 dts:882000 dts_time:9.8 duration:0 duration_time:0 stream_index:0
[mpeg @ 0x555558dbe6f0] buffer underflow st=0 bufi=1015 size=2997
pts:889200 pts_time:9.88 dts:885600 dts_time:9.84 duration:0 duration_time:0 stream_index:0
[mpeg @ 0x555558dbe6f0] buffer underflow st=0 bufi=50 size=1961
pts:892800 pts_time:9.92 dts:889200 dts_time:9.88 duration:0 duration_time:0 stream_index:0
[mpeg @ 0x555558dbe6f0] buffer underflow st=0 bufi=121 size=1781
[mpeg @ 0x555558dbe6f0] buffer underflow st=0 bufi=372 size=2137
pts:896400 pts_time:9.96 dts:892800 dts_time:9.92 duration:0 duration_time:0 stream_index:0
pts:900000 pts_time:10 dts:896400 dts_time:9.96 duration:0 duration_time:0 stream_index:0
